<svg version="1.0" xmlns="http://www.w3.org/2000/svg" width="554.667" height="554.667" viewBox="0 0 416 416"><path d="M176.2 159.7c17.5.2 46.1.2 63.5 0 17.5-.1 3.2-.2-31.7-.2s-49.2.1-31.8.2zM143.5 201c0 20.6.1 29.1.2 18.8.2-10.4.2-27.2 0-37.5-.1-10.4-.2-1.9-.2 18.7zm129 1c0 21.2.1 29.8.2 19.3.2-10.6.2-28 0-38.5-.1-10.6-.2-2-.2 19.2zm-39.3-14c0 1.4.2 1.9.5 1.2.2-.6.2-1.8 0-2.5-.3-.6-.5-.1-.5 1.3zm-56.3 18.7l-2.4 2.8 2.8-2.4c2.5-2.3 3.2-3.1 2.4-3.1-.2 0-1.4 1.2-2.8 2.7zm-8.9 9l-5.5 5.8 5.8-5.5c5.3-5 6.2-6 5.4-6-.1 0-2.7 2.6-5.7 5.7zm71.4-.5l-2.9 3.3 3.1-2.8c1.7-1.5 3.4-2.4 3.9-2 .4.5.5.2.1-.5-.9-1.6-.8-1.7-4.2 2zm-6.5 6.5c-1.3 1.6-1.2 1.7.4.4.9-.7 1.7-1.5 1.7-1.7 0-.8-.8-.3-2.1 1.3zm-74.5 3.5l-2.9 3.3 3.3-2.9c3-2.8 3.7-3.6 2.9-3.6-.2 0-1.6 1.5-3.3 3.2zm-8.4 8.3c-2.4 2.5-4.2 4.5-3.9 4.5.3 0 2.5-2 4.9-4.5 2.4-2.5 4.2-4.5 3.9-4.5-.3 0-2.5 2-4.9 4.5zm61 3c1.3 1.4 2.6 2.5 2.8 2.5.3 0-.5-1.1-1.8-2.5s-2.6-2.5-2.8-2.5c-.3 0 .5 1.1 1.8 2.5zm5.9 1.2c-1.3 1.6-1.2 1.7.4.4.9-.7 1.7-1.5 1.7-1.7 0-.8-.8-.3-2.1 1.3zm-40.2 19c17.2.2 45.4.2 62.5 0 17.2-.1 3.2-.2-31.2-.2s-48.4.1-31.3.2z"/></svg>